<?xml version="1.0" encoding="UTF-8" standalone="no"?>
<!-- Created with Inkscape (http://www.inkscape.org/) -->

<svg
   xmlns:dc="http://purl.org/dc/elements/1.1/"
   xmlns:cc="http://creativecommons.org/ns#"
   xmlns:rdf="http://www.w3.org/1999/02/22-rdf-syntax-ns#"
   xmlns:svg="http://www.w3.org/2000/svg"
   xmlns="http://www.w3.org/2000/svg"
   xmlns:sodipodi="http://sodipodi.sourceforge.net/DTD/sodipodi-0.dtd"
   xmlns:inkscape="http://www.inkscape.org/namespaces/inkscape"
   width="1768"
   height="631"
   id="svg2"
   version="1.1"
   inkscape:version="0.48.5 r10040"
   sodipodi:docname="tclssg-logo-text.svg"
   inkscape:export-filename="/home/dbohdan/Private/Dropbox/projects/web/danyilbohdan.com/temphtml/1.png"
   inkscape:export-xdpi="30.540001"
   inkscape:export-ydpi="30.540001">
  <defs
     id="defs4" />
  <sodipodi:namedview
     id="base"
     pagecolor="#ffffff"
     bordercolor="#666666"
     borderopacity="1.0"
     inkscape:pageopacity="0.0"
     inkscape:pageshadow="2"
     inkscape:zoom="0.70710678"
     inkscape:cx="834.66693"
     inkscape:cy="334.60205"
     inkscape:document-units="px"
     inkscape:current-layer="g3743"
     showgrid="false"
     inkscape:window-width="1440"
     inkscape:window-height="821"
     inkscape:window-x="0"
     inkscape:window-y="24"
     inkscape:window-maximized="1" />
  <metadata
     id="metadata7">
    <rdf:RDF>
      <cc:Work
         rdf:about="">
        <dc:format>image/svg+xml</dc:format>
        <dc:type
           rdf:resource="http://purl.org/dc/dcmitype/StillImage" />
        <dc:title />
      </cc:Work>
    </rdf:RDF>
  </metadata>
  <g
     inkscape:label="Layer 1"
     inkscape:groupmode="layer"
     id="layer1"
     transform="translate(0,-421.36218)">
    <text
       xml:space="preserve"
       style="font-size:384.9246521px;font-style:normal;font-weight:normal;line-height:125%;letter-spacing:0px;word-spacing:0px;fill:#443f41;fill-opacity:1;stroke:none;font-family:Sans"
       x="511.99463"
       y="876.01794"
       id="text3279"
       sodipodi:linespacing="125%"
       inkscape:export-xdpi="139.89"
       inkscape:export-ydpi="139.89"
       inkscape:export-filename="/home/dbohdan/Private/Dropbox/projects/web/danyilbohdan.com/temphtml/1.png"><tspan
         sodipodi:role="line"
         id="tspan3281"
         x="511.99463"
         y="876.01794"
         style="font-style:normal;font-variant:normal;font-weight:bold;font-stretch:normal;word-spacing:0px;fill:#443f41;fill-opacity:1;font-family:Open Sans;-inkscape-font-specification:Open Sans Bold"><tspan
           style="letter-spacing:0px;word-spacing:0px"
           id="tspan3283"
           dx="84.340256 -35.82">T<tspan
   style="letter-spacing:-8.66000175px"
   id="tspan3561"
   dx="-48.523975">c</tspan></tspan><tspan
           style="letter-spacing:-8.66000175px"
           id="tspan3563">lssg</tspan></tspan></text>
    <g
       id="g3743"
       transform="matrix(0.99839308,0,0,0.99839308,19.198295,428.63419)"
       inkscape:export-filename="/home/dbohdan/Private/Dropbox/projects/web/danyilbohdan.com/temphtml/1.png"
       inkscape:export-xdpi="139.89"
       inkscape:export-ydpi="139.89">
      <g
         id="g2995">
        <g
           id="#443f41ff">
          <path
             style="fill:#443f41"
             inkscape:connector-curvature="0"
             d="m 346.34,51.35 c 24.4,-0.79 49.13,-0.17 73.66,-0.31 l 0.23,0.28 c -12.45,21.11 -24.52,42.45 -36.86,63.62 -12.3,21.36 -24.63,42.71 -36.96,64.05 -12.29,21.33 -24.64,42.62 -36.91,63.96 -12.39,21.34 -24.65,42.74 -37.03,64.09 -12.26,21.33 -24.65,42.6 -36.88,63.95 -12.43,21.29 -24.59,42.72 -37.03,64.01 -12.26,21.36 -24.58,42.69 -36.95,63.99 -12.2,21.39 -24.65,42.63 -36.87,64.01 -24.65,0 -49.29,0 -73.93,0 C 149.34,392.47 247.64,221.77 346.34,51.35 z"
             id="path3708" />
        </g>
        <g
           id="g4871">
          <path
             id="path3729"
             style="fill:#c3b15f;fill-opacity:1"
             d="m 420.23,51.32 c 12.63,21.01 24.73,42.37 36.89,63.67 -24.59,-0.02 -49.17,0.08 -73.75,-0.05 12.34,-21.17 24.41,-42.51 36.86,-63.62 z M 494.2,51 c 24.61,0.01 49.22,-0.02 73.83,0.02 -12.14,21.34 -24.58,42.51 -36.76,63.84 C 518.62,93.75 506.61,72.25 494.2,51 z M 420,51.04 c 24.73,-0.09 49.46,-0.01 74.2,-0.04 12.41,21.25 24.42,42.75 37.07,63.86 l 0.12,0.18 c -24.76,-0.1 -49.51,0 -74.27,-0.05 C 444.96,93.69 432.86,72.33 420.23,51.32 L 420,51.04 z" />
          <path
             id="path3731"
             style="fill:#c3b15f;fill-opacity:1"
             d="m 309.5,242.95 c 12.27,-21.34 24.62,-42.63 36.91,-63.96 12.29,21.34 24.66,42.63 36.88,64.01 -24.59,-0.03 -49.19,0.06 -73.79,-0.05 z M 420.21,179 c 24.66,0 49.31,0.01 73.96,-0.01 -12.23,21.32 -24.54,42.59 -36.84,63.86 C 444.7,221.72 432.75,200.18 420.21,179 z m -73.8,-0.01 c 24.6,0.02 49.2,0.01 73.8,0.01 12.54,21.18 24.49,42.72 37.12,63.85 l 0.09,0.14 c -24.71,0.02 -49.42,0 -74.13,0.01 -12.22,-21.38 -24.59,-42.67 -36.88,-64.01 z" />
          <path
             id="path3733"
             style="fill:#c3b15f;fill-opacity:1"
             d="m 235.59,370.99 c 12.23,-21.35 24.62,-42.62 36.88,-63.95 12.34,21.27 24.75,42.52 36.82,63.95 -24.57,0.02 -49.13,0.01 -73.7,0 z m 110.83,-63.98 c 24.6,-0.02 49.2,-0.01 73.8,-0.01 -12.11,21.09 -24.12,42.25 -36.56,63.14 C 370.19,350.04 359,327.9 346.42,307.01 z m -73.95,0.03 c 24.65,-0.09 49.3,-0.02 73.95,-0.03 12.58,20.89 23.77,43.03 37.24,63.13 l 0.06,0.49 c -24.65,0.86 -49.65,0.14 -74.43,0.36 -12.07,-21.43 -24.48,-42.68 -36.82,-63.95 z" />
          <path
             id="path3735"
             style="fill:#c3b15f;fill-opacity:1"
             d="m 161.61,498.99 c 12.37,-21.3 24.69,-42.63 36.95,-63.99 12.38,21.29 24.68,42.63 36.92,64 -24.62,0 -49.24,0.01 -73.87,-0.01 z M 272.43,435 c 24.71,-0.01 49.42,0.02 74.12,-0.01 -12.56,21.13 -24.59,42.6 -37.03,63.82 C 296.86,477.72 284.97,456.17 272.43,435 z m -73.87,0 c 24.62,0.01 49.25,-0.01 73.87,0 12.54,21.17 24.43,42.72 37.09,63.81 l 0.16,0.23 c -24.73,-0.1 -49.47,-0.01 -74.2,-0.04 -12.24,-21.37 -24.54,-42.71 -36.92,-64 z" />
        </g>
      </g>
    </g>
  </g>
</svg>
